#Comment line ignore any data following # character 
#Hierarchical Translation and Rotation (.htr) file 
[Header]	
#Header keywords are followed by a single value 
FileType HTR		#Single word string
DataType HTRS		#Translation followed by rotation and scale data
FileVersion 1		#integer
NumSegments 84		#integer
NumFrames 2		#integer
DataFrameRate 30		#integer, data frame rate in this file
EulerRotationOrder ZYX
CalibrationUnits mm
RotationUnits Degrees
GlobalAxisofGravity Y
BoneLengthAxis Y
ScaleFactor 1.00
[SegmentNames&Hierarchy]
#CHILD	PARENT
MASTER GLOBAL
root MASTER
chest root
L_mid_tent01 root
R_mid_tent01 root
spine01 root
Bip01_Neck chest
L_humerus chest
R_humerus chest
weapon_bone chest
Bip01_Head Bip01_Neck
eye_left_bone Bip01_Head
eye_right_bone Bip01_Head
L_forearm L_humerus
L_front_hand L_forearm
L_weapon_bone L_forearm
L_front_hand01_01 L_front_hand
L_front_hand02_01 L_front_hand
L_front_hand03_01 L_front_hand
L_front_hand01_02 L_front_hand01_01
L_front_hand02_02 L_front_hand02_01
L_front_hand03_02 L_front_hand03_01
R_forearm R_humerus
R_front_hand R_forearm
R_weapon_bone R_forearm
R_front_hand01_01 R_front_hand
R_front_hand02_01 R_front_hand
R_front_hand03_01 R_front_hand
R_front_hand01_02 R_front_hand01_01
R_front_hand02_02 R_front_hand02_01
R_front_hand03_02 R_front_hand03_01
null_rope01_connect L_mid_tent01
Rope1_Seg01 null_rope01_connect
Rope1_Seg02 Rope1_Seg01
Rope1_Seg03 Rope1_Seg02
Rope1_Seg04 Rope1_Seg03
Rope1_Seg05 Rope1_Seg04
Rope1_Seg06 Rope1_Seg05
Rope1_Seg07 Rope1_Seg06
Rope1_Seg09 Rope1_Seg07
L_mid_hand01 Rope1_Seg09
L_mid_hand02 Rope1_Seg09
L_mid_hand03 Rope1_Seg09
null_rope02_connect R_mid_tent01
Rope2_Seg01 null_rope02_connect
Rope2_Seg02 Rope2_Seg01
Rope2_Seg03 Rope2_Seg02
Rope2_Seg04 Rope2_Seg03
Rope2_Seg05 Rope2_Seg04
Rope2_Seg06 Rope2_Seg05
Rope2_Seg07 Rope2_Seg06
Rope2_Seg09 Rope2_Seg07
R_mid_hand01 Rope2_Seg09
R_mid_hand02 Rope2_Seg09
R_mid_hand03 Rope2_Seg09
spine02 spine01
spine03 spine02
pelvis spine03
null_rope03_connect pelvis
null_rope04_connect pelvis
Rope3_Seg01 null_rope03_connect
Rope3_Seg02 Rope3_Seg01
Rope3_Seg03 Rope3_Seg02
Rope3_Seg04 Rope3_Seg03
Rope3_Seg05 Rope3_Seg04
Rope3_Seg06 Rope3_Seg05
Rope3_Seg07 Rope3_Seg06
Rope3_Seg08 Rope3_Seg07
Rope3_Seg09 Rope3_Seg08
R_rear_hand01 Rope3_Seg09
R_rear_hand02 Rope3_Seg09
R_rear_hand03 Rope3_Seg09
Rope4_Seg01 null_rope04_connect
Rope4_Seg02 Rope4_Seg01
Rope4_Seg03 Rope4_Seg02
Rope4_Seg04 Rope4_Seg03
Rope4_Seg05 Rope4_Seg04
Rope4_Seg06 Rope4_Seg05
Rope4_Seg07 Rope4_Seg06
Rope4_Seg08 Rope4_Seg07
Rope4_Seg09 Rope4_Seg08
L_rear_hand01 Rope4_Seg09
L_rear_hand02 Rope4_Seg09
L_rear_hand03 Rope4_Seg09
[BasePosition]
#SegmentName Tx, Ty, Tz, Rx, Ry, Rz, BoneLength
MASTER 0.000000 0.000000 0.000000 -90.000000 0.000000 0.000000 10.000000 
root 0.000000 0.000000 0.000000 0.000000 0.000000 0.000000 10.000000 
chest 0.000000 0.000000 0.000000 0.000000 0.000000 0.000000 10.000000 
L_mid_tent01 0.000000 0.000000 0.000000 0.000000 0.000000 0.000000 10.000000 
R_mid_tent01 0.000000 0.000000 0.000000 0.000000 0.000000 0.000000 10.000000 
spine01 0.000000 0.000000 0.000000 0.000000 0.000000 0.000000 10.000000 
Bip01_Neck 0.000000 0.000000 0.000000 0.000000 0.000000 0.000000 10.000000 
L_humerus 0.000000 0.000000 0.000000 0.000000 0.000000 0.000000 10.000000 
R_humerus 0.000000 0.000000 0.000000 0.000000 0.000000 0.000000 10.000000 
weapon_bone 0.000000 0.000000 0.000000 0.000000 0.000000 0.000000 10.000000 
Bip01_Head 0.000000 0.000000 0.000000 0.000000 0.000000 0.000000 10.000000 
eye_left_bone 0.000000 0.000000 0.000000 0.000000 0.000000 0.000000 10.000000 
eye_right_bone 0.000000 0.000000 0.000000 0.000000 0.000000 0.000000 10.000000 
L_forearm 0.000000 0.000000 0.000000 0.000000 0.000000 0.000000 10.000000 
L_front_hand 0.000000 0.000000 0.000000 0.000000 0.000000 0.000000 10.000000 
L_weapon_bone 0.000000 0.000000 0.000000 0.000000 0.000000 0.000000 10.000000 
L_front_hand01_01 0.000000 0.000000 0.000000 0.000000 0.000000 0.000000 10.000000 
L_front_hand02_01 0.000000 0.000000 0.000000 0.000000 0.000000 0.000000 10.000000 
L_front_hand03_01 0.000000 0.000000 0.000000 0.000000 0.000000 0.000000 10.000000 
L_front_hand01_02 0.000000 0.000000 0.000000 0.000000 0.000000 0.000000 10.000000 
L_front_hand02_02 0.000000 0.000000 0.000000 0.000000 0.000000 0.000000 10.000000 
L_front_hand03_02 0.000000 0.000000 0.000000 0.000000 0.000000 0.000000 10.000000 
R_forearm 0.000000 0.000000 0.000000 0.000000 0.000000 0.000000 10.000000 
R_front_hand 0.000000 0.000000 0.000000 0.000000 0.000000 0.000000 10.000000 
R_weapon_bone 0.000000 0.000000 0.000000 0.000000 0.000000 0.000000 10.000000 
R_front_hand01_01 0.000000 0.000000 0.000000 0.000000 0.000000 0.000000 10.000000 
R_front_hand02_01 0.000000 0.000000 0.000000 0.000000 0.000000 0.000000 10.000000 
R_front_hand03_01 0.000000 0.000000 0.000000 0.000000 0.000000 0.000000 10.000000 
R_front_hand01_02 0.000000 0.000000 0.000000 0.000000 0.000000 0.000000 10.000000 
R_front_hand02_02 0.000000 0.000000 0.000000 0.000000 0.000000 0.000000 10.000000 
R_front_hand03_02 0.000000 0.000000 0.000000 0.000000 0.000000 0.000000 10.000000 
null_rope01_connect 0.000000 0.000000 0.000000 0.000000 0.000000 0.000000 10.000000 
Rope1_Seg01 0.000000 0.000000 0.000000 0.000000 0.000000 0.000000 10.000000 
Rope1_Seg02 0.000000 0.000000 0.000000 0.000000 0.000000 0.000000 10.000000 
Rope1_Seg03 0.000000 0.000000 0.000000 0.000000 0.000000 0.000000 10.000000 
Rope1_Seg04 0.000000 0.000000 0.000000 0.000000 0.000000 0.000000 10.000000 
Rope1_Seg05 0.000000 0.000000 0.000000 0.000000 0.000000 0.000000 10.000000 
Rope1_Seg06 0.000000 0.000000 0.000000 0.000000 0.000000 0.000000 10.000000 
Rope1_Seg07 0.000000 0.000000 0.000000 0.000000 0.000000 0.000000 10.000000 
Rope1_Seg09 0.000000 0.000000 0.000000 0.000000 0.000000 0.000000 10.000000 
L_mid_hand01 0.000000 0.000000 0.000000 0.000000 0.000000 0.000000 10.000000 
L_mid_hand02 0.000000 0.000000 0.000000 0.000000 0.000000 0.000000 10.000000 
L_mid_hand03 0.000000 0.000000 0.000000 0.000000 0.000000 0.000000 10.000000 
null_rope02_connect 0.000000 0.000000 0.000000 0.000000 0.000000 0.000000 10.000000 
Rope2_Seg01 0.000000 0.000000 0.000000 0.000000 0.000000 0.000000 10.000000 
Rope2_Seg02 0.000000 0.000000 0.000000 0.000000 0.000000 0.000000 10.000000 
Rope2_Seg03 0.000000 0.000000 0.000000 0.000000 0.000000 0.000000 10.000000 
Rope2_Seg04 0.000000 0.000000 0.000000 0.000000 0.000000 0.000000 10.000000 
Rope2_Seg05 0.000000 0.000000 0.000000 0.000000 0.000000 0.000000 10.000000 
Rope2_Seg06 0.000000 0.000000 0.000000 0.000000 0.000000 0.000000 10.000000 
Rope2_Seg07 0.000000 0.000000 0.000000 0.000000 0.000000 0.000000 10.000000 
Rope2_Seg09 0.000000 0.000000 0.000000 0.000000 0.000000 0.000000 10.000000 
R_mid_hand01 0.000000 0.000000 0.000000 0.000000 0.000000 0.000000 10.000000 
R_mid_hand02 0.000000 0.000000 0.000000 0.000000 0.000000 0.000000 10.000000 
R_mid_hand03 0.000000 0.000000 0.000000 0.000000 0.000000 0.000000 10.000000 
spine02 0.000000 0.000000 0.000000 0.000000 0.000000 0.000000 10.000000 
spine03 0.000000 0.000000 0.000000 0.000000 0.000000 0.000000 10.000000 
pelvis 0.000000 0.000000 0.000000 0.000000 0.000000 0.000000 10.000000 
null_rope03_connect 0.000000 0.000000 0.000000 0.000000 0.000000 0.000000 10.000000 
null_rope04_connect 0.000000 0.000000 0.000000 0.000000 0.000000 0.000000 10.000000 
Rope3_Seg01 0.000000 0.000000 0.000000 0.000000 0.000000 0.000000 10.000000 
Rope3_Seg02 0.000000 0.000000 0.000000 0.000000 0.000000 0.000000 10.000000 
Rope3_Seg03 0.000000 0.000000 0.000000 0.000000 0.000000 0.000000 10.000000 
Rope3_Seg04 0.000000 0.000000 0.000000 0.000000 0.000000 0.000000 10.000000 
Rope3_Seg05 0.000000 0.000000 0.000000 0.000000 0.000000 0.000000 10.000000 
Rope3_Seg06 0.000000 0.000000 0.000000 0.000000 0.000000 0.000000 10.000000 
Rope3_Seg07 0.000000 0.000000 0.000000 0.000000 0.000000 0.000000 10.000000 
Rope3_Seg08 0.000000 0.000000 0.000000 0.000000 0.000000 0.000000 10.000000 
Rope3_Seg09 0.000000 0.000000 0.000000 0.000000 0.000000 0.000000 10.000000 
R_rear_hand01 0.000000 0.000000 0.000000 0.000000 0.000000 0.000000 10.000000 
R_rear_hand02 0.000000 0.000000 0.000000 0.000000 0.000000 0.000000 10.000000 
R_rear_hand03 0.000000 0.000000 0.000000 0.000000 0.000000 0.000000 10.000000 
Rope4_Seg01 0.000000 0.000000 0.000000 0.000000 0.000000 0.000000 10.000000 
Rope4_Seg02 0.000000 0.000000 0.000000 0.000000 0.000000 0.000000 10.000000 
Rope4_Seg03 0.000000 0.000000 0.000000 0.000000 0.000000 0.000000 10.000000 
Rope4_Seg04 0.000000 0.000000 0.000000 0.000000 0.000000 0.000000 10.000000 
Rope4_Seg05 0.000000 0.000000 0.000000 0.000000 0.000000 0.000000 10.000000 
Rope4_Seg06 0.000000 0.000000 0.000000 0.000000 0.000000 0.000000 10.000000 
Rope4_Seg07 0.000000 0.000000 0.000000 0.000000 0.000000 0.000000 10.000000 
Rope4_Seg08 0.000000 0.000000 0.000000 0.000000 0.000000 0.000000 10.000000 
Rope4_Seg09 0.000000 0.000000 0.000000 0.000000 0.000000 0.000000 10.000000 
L_rear_hand01 0.000000 0.000000 0.000000 0.000000 0.000000 0.000000 10.000000 
L_rear_hand02 0.000000 0.000000 0.000000 0.000000 0.000000 0.000000 10.000000 
L_rear_hand03 0.000000 0.000000 0.000000 0.000000 0.000000 0.000000 10.000000 
#Beginning of Data. Separated by tabs
#Fr	Tx	Ty	Tz	Rx	Ry	Rz	SF
[MASTER]
15 0.000000 0.000000 0.000000 0.001660 0.001660 0.001660 0.000000
16 0.000000 0.000000 0.000000 0.001660 0.001660 0.001660 0.000000
[root]
15 67.881538 -172.852783 2093.652344 -112.134621 -28.790409 -57.163792 2101.872070
16 69.810150 -172.910782 2094.562988 -112.146019 -28.971289 -57.272518 2102.846924
[chest]
15 -84.512650 -34.090519 0.000000 -2.766762 -6.532086 175.427673 91.129311
16 -84.512650 -34.090519 0.000000 -2.786485 -8.446013 175.683853 91.129311
[L_mid_tent01]
15 27.299997 22.177078 -249.918762 -85.797180 50.084343 -24.338543 252.381653
16 27.299955 22.177174 -249.918762 -92.277557 50.675587 -32.536308 252.381668
[R_mid_tent01]
15 23.228794 24.509907 226.238495 64.922134 -82.577728 -155.438477 228.744751
16 23.228794 24.509907 226.238495 12.267483 -75.017975 -102.667084 228.744751
[spine01]
15 -0.361383 -0.195265 0.000000 0.001936 0.001327 21.138033 0.410763
16 -0.361383 -0.195265 0.000000 0.001936 0.001328 21.096527 0.410763
[Bip01_Neck]
15 165.484543 71.581718 0.000119 175.896118 1.177290 24.871185 180.302734
16 165.484543 71.581718 0.000119 175.896118 1.177290 24.871183 180.302734
[L_humerus]
15 -13.983130 -135.272980 -120.471481 -93.631393 46.854393 5.801429 181.680161
16 -13.983130 -135.272980 -120.471481 -91.353104 37.173817 7.162620 181.680161
[R_humerus]
15 -13.983309 -135.273102 125.287651 130.700592 -35.446362 2.265268 184.909012
16 -13.983309 -135.273102 125.287651 131.255890 -34.697472 1.729743 184.909012
[weapon_bone]
15 235.964890 -300.705902 0.000000 0.000000 -89.951546 -128.212341 382.234833
16 235.964890 -300.705902 0.000000 0.000000 -89.951546 -128.212341 382.234833
[Bip01_Head]
15 243.577942 98.444496 2.933195 -14.718687 1.170570 -55.171577 262.735870
16 246.835617 94.168381 2.435759 -8.488321 1.618275 -55.687504 264.199615
[eye_left_bone]
15 35.625610 158.718948 -75.721786 -134.503403 -87.513123 35.278286 179.428757
16 35.625305 158.788223 -75.741531 -132.676605 -87.386414 33.436962 179.498306
[eye_right_bone]
15 39.554291 160.529251 53.244415 45.463120 -87.509903 35.310547 173.692688
16 39.785919 160.573349 53.215179 47.282852 -87.381020 33.475830 173.777374
[L_forearm]
15 322.776093 0.000000 -0.000119 0.000834 0.002194 -48.393173 322.776093
16 322.776093 0.000000 -0.000119 0.001007 0.002120 -39.164532 322.776093
[L_front_hand]
15 241.149185 -0.042021 -3.300071 -125.449471 4.204335 -0.763874 241.171753
16 241.149185 -0.042021 -3.300071 -112.381424 3.043054 2.361617 241.171753
[L_weapon_bone]
15 156.183838 0.000000 0.000000 0.000531 0.002286 -63.827667 156.183838
16 156.183838 0.000000 0.000000 0.000444 0.002305 -68.215881 156.183838
[L_front_hand01_01]
15 86.095154 20.947098 -0.655860 -0.313208 -0.508940 69.228859 88.609184
16 86.095154 20.947098 -0.655860 -0.306723 -0.513200 68.688881 88.609184
[L_front_hand02_01]
15 86.935165 -11.437475 24.513514 145.729446 -56.800426 -51.192154 91.046425
16 86.935165 -11.437475 24.513514 145.058716 -56.493362 -50.387756 91.046425
[L_front_hand03_01]
15 86.637497 -14.123976 -20.424902 -145.838516 55.019279 -53.038788 90.126129
16 86.637497 -14.123976 -20.424902 -145.209778 54.713604 -52.269207 90.126129
[L_front_hand01_02]
15 71.020905 -0.000179 0.000030 0.001534 0.001777 -8.378850 71.020905
16 71.020905 -0.000179 0.000030 0.001534 0.001777 -8.378851 71.020905
[L_front_hand02_02]
15 71.020927 -0.000119 0.000060 0.001534 0.001777 -8.378850 71.020927
16 71.020927 -0.000119 0.000060 0.001534 0.001777 -8.378851 71.020927
[L_front_hand03_02]
15 71.020905 -0.000060 0.000060 0.001534 0.001777 -8.378850 71.020905
16 71.020905 -0.000060 0.000060 0.001534 0.001777 -8.378851 71.020905
[R_forearm]
15 322.776428 -0.000060 0.000030 0.136028 -0.164226 -40.432434 322.776428
16 322.776428 -0.000060 0.000030 0.129038 -0.167769 -38.818546 322.776428
[R_front_hand]
15 238.847015 -0.006795 2.210259 -2.635298 -10.645462 -26.312506 238.857239
16 238.847015 -0.006795 2.210259 -2.635298 -10.645461 -26.312506 238.857239
[R_weapon_bone]
15 155.664093 0.002503 -0.000030 0.003487 0.001180 -90.988930 155.664078
16 155.664093 0.002503 -0.000030 0.003487 0.001180 -90.988930 155.664078
[R_front_hand01_01]
15 87.624611 14.231146 22.918642 -154.633499 -59.950619 61.746044 91.683487
16 87.624611 14.231146 22.918642 -154.633499 -59.950619 61.746044 91.683487
[R_front_hand02_01]
15 89.356956 14.367283 -19.491137 154.602661 58.302849 63.744389 92.579636
16 89.356956 14.367283 -19.491137 154.602661 58.302849 63.744389 92.579636
[R_front_hand03_01]
15 87.286232 -22.307278 -0.143439 0.162155 -0.423168 -75.767921 90.091743
16 87.286232 -22.307278 -0.143439 0.162155 -0.423168 -75.767921 90.091743
[R_front_hand01_02]
15 71.020905 0.000060 0.000119 0.002184 0.000861 46.953213 71.020905
16 71.020905 0.000060 0.000119 0.002262 0.000662 57.380749 71.020905
[R_front_hand02_02]
15 71.020844 -0.000030 -0.000119 0.002184 0.000861 46.953213 71.020836
16 71.020844 -0.000030 -0.000119 0.002262 0.000662 57.380749 71.020836
[R_front_hand03_02]
15 71.020905 0.000000 0.000030 0.002184 0.000861 46.953213 71.020905
16 71.020905 0.000000 0.000030 0.002262 0.000662 57.380749 71.020905
[null_rope01_connect]
15 328.732483 0.000000 -0.000238 -121.453506 -11.234560 -112.465843 328.732483
16 328.732483 0.000000 -0.000238 -116.448959 -8.962722 -113.956642 328.732483
[Rope1_Seg01]
15 -0.000038 -0.000114 0.000103 76.648354 -38.524723 -149.184219 0.000158
16 -0.000038 -0.000114 0.000103 73.266235 -38.340237 -145.410400 0.000159
[Rope1_Seg02]
15 139.999863 -0.000179 0.000000 1.061844 -3.901089 -0.034504 139.999863
16 139.999863 -0.000179 0.000000 1.175713 -3.815418 -0.185969 139.999863
[Rope1_Seg03]
15 139.999924 0.000060 -0.000060 1.701437 -8.182645 0.083268 139.999924
16 139.999924 0.000060 -0.000060 1.991627 -8.177784 -0.230000 139.999924
[Rope1_Seg04]
15 139.999924 -0.000060 -0.000119 -6.488492 -41.152317 11.935581 139.999924
16 139.999924 -0.000060 -0.000119 -6.490234 -45.606094 10.867590 139.999924
[Rope1_Seg05]
15 139.999832 0.000119 -0.000060 -15.198461 -53.006523 -30.155344 139.999832
16 139.999832 0.000119 -0.000060 -13.448263 -52.718285 -33.040310 139.999832
[Rope1_Seg06]
15 139.999954 0.000119 -0.000060 -5.161256 3.384876 -25.822809 139.999954
16 139.999954 0.000119 -0.000060 -4.576199 2.848677 -23.732637 139.999954
[Rope1_Seg07]
15 139.999985 0.000060 0.000000 -0.310361 -0.941756 -7.865909 139.999985
16 139.999985 0.000060 0.000000 -0.359533 -0.993292 -7.493587 139.999985
[Rope1_Seg09]
15 121.602913 0.000119 -0.000089 -73.787064 -1.358451 0.848649 121.602913
16 121.602913 0.000119 -0.000089 -66.995323 -1.358592 0.847788 121.602913
[L_mid_hand01]
15 103.859421 1.038730 8.195221 105.103729 -17.962868 -5.290955 104.187431
16 103.859421 1.038730 8.195221 105.667557 -23.362820 -6.878233 104.187431
[L_mid_hand02]
15 105.572853 -4.139662 -10.864139 -138.167282 16.893654 -17.390942 106.211075
16 105.572853 -4.139662 -10.864139 -139.598343 20.582607 -21.846365 106.211075
[L_mid_hand03]
15 104.641464 17.579376 -3.913581 -17.918573 5.675238 20.907755 106.179977
16 104.641464 17.579376 -3.913581 -17.306995 7.373226 26.282709 106.179977
[null_rope02_connect]
15 328.732849 0.000179 -0.000119 -145.703964 1.367356 35.135128 328.732849
16 328.732849 0.000179 -0.000119 -151.326279 -8.603202 31.831141 328.732849
[Rope2_Seg01]
15 -0.000004 0.000104 0.000000 -76.469673 47.637802 15.543987 0.000104
16 0.000001 0.000105 0.000000 -87.958122 55.698124 9.107476 0.000105
[Rope2_Seg02]
15 139.999741 -0.000060 -0.000119 2.717460 -19.650652 1.624696 139.999756
16 139.999741 -0.000060 -0.000119 5.101950 -16.112494 -2.525905 139.999756
[Rope2_Seg03]
15 140.000107 0.000030 0.000000 1.691704 -20.378042 -2.076455 140.000107
16 140.000107 0.000030 0.000000 3.830757 -21.014521 -4.519505 140.000107
[Rope2_Seg04]
15 139.999802 0.000000 -0.000060 -1.292359 -17.605206 7.052633 139.999802
16 139.999802 0.000000 -0.000060 -0.605754 -20.895702 -0.796852 139.999802
[Rope2_Seg05]
15 139.999985 -0.000060 0.000119 4.201855 -13.622248 17.234098 139.999985
16 139.999985 -0.000060 0.000119 -1.765010 -24.389296 14.471489 139.999985
[Rope2_Seg06]
15 139.999893 -0.000030 -0.000119 4.619121 -6.192604 8.196009 139.999893
16 139.999893 -0.000030 -0.000119 1.586001 -13.968024 8.506322 139.999893
[Rope2_Seg07]
15 139.999893 0.000060 -0.000060 3.463532 -3.131149 4.516469 139.999893
16 139.999893 0.000060 -0.000060 1.244145 -6.569717 3.740682 139.999893
[Rope2_Seg09]
15 121.338966 0.000089 -0.000060 33.793236 -1.359788 -0.847141 121.338966
16 121.338966 0.000089 -0.000060 33.793236 -1.359788 -0.847141 121.338966
[R_mid_hand01]
15 104.680779 11.144459 -10.335981 -19.077671 44.321083 66.393425 105.778534
16 104.680779 11.144459 -10.335981 -22.112436 43.126217 62.001808 105.778534
[R_mid_hand02]
15 104.070427 2.443552 8.231699 53.450706 -65.386635 34.512547 104.424065
16 104.070427 2.443552 8.231699 57.396595 -62.591122 30.126879 104.424065
[R_mid_hand03]
15 106.028137 -11.221827 -5.996406 -176.263077 15.377099 -73.446426 106.788818
16 106.028137 -11.221827 -5.996406 -175.339279 15.125996 -69.937759 106.788818
[spine02]
15 129.756927 0.001550 0.000119 0.433406 -4.036923 -14.018883 129.756927
16 129.756927 0.001550 0.000119 0.426374 -4.037713 -13.889019 129.756927
[spine03]
15 78.614716 0.080344 -4.899047 2.200001 3.668451 21.095015 78.767250
16 78.614685 0.080393 -4.899045 2.201936 3.667292 21.155460 78.767220
[pelvis]
15 169.435242 0.051022 0.000000 -0.062125 -0.179660 15.145007 169.435257
16 169.435242 0.051022 0.000000 -0.062078 -0.179676 15.115074 169.435257
[null_rope03_connect]
15 -1.257226 -2.466202 137.391083 130.875122 -61.559471 -50.097591 137.418976
16 -1.257226 -2.466202 137.391083 131.060471 -61.702152 -50.246170 137.418976
[null_rope04_connect]
15 -1.259640 -2.480268 -137.844437 130.875122 -61.559471 -50.097591 137.872513
16 -1.259640 -2.480268 -137.844437 131.060471 -61.702152 -50.246170 137.872513
[Rope3_Seg01]
15 0.000000 0.000000 0.000000 -116.196968 21.357748 -42.221363 0.000000
16 0.000000 0.000000 0.000000 -116.394249 12.737658 -35.126102 0.000000
[Rope3_Seg02]
15 139.999924 -0.000119 0.000060 11.350410 -22.748228 3.532469 139.999924
16 139.999924 -0.000119 0.000060 20.853109 -26.992586 3.134730 139.999924
[Rope3_Seg03]
15 139.999924 -0.000119 0.000119 15.780650 -23.872988 6.231412 139.999924
16 139.999924 -0.000119 0.000119 23.468164 -25.080286 9.870095 139.999924
[Rope3_Seg04]
15 139.999924 0.000119 0.000000 13.506523 -18.965120 18.034527 139.999924
16 139.999924 0.000119 0.000000 12.803246 -12.344712 23.959545 139.999924
[Rope3_Seg05]
15 139.999924 -0.000238 0.000060 5.631355 -7.033350 21.254133 139.999924
16 139.999924 -0.000238 0.000060 3.672353 -0.544606 19.359875 139.999924
[Rope3_Seg06]
15 139.999893 -0.000119 -0.000060 1.500067 -1.884382 8.076663 139.999893
16 139.999893 -0.000119 -0.000060 0.940710 -0.120314 7.003415 139.999893
[Rope3_Seg07]
15 139.999771 0.000060 -0.000119 0.861946 -0.989386 4.110185 139.999771
16 139.999771 0.000060 -0.000119 0.627117 -0.088881 3.884338 139.999771
[Rope3_Seg08]
15 139.999985 -0.000060 0.000000 0.673720 -0.521546 2.328233 139.999985
16 139.999985 -0.000060 0.000000 0.550272 -0.023873 2.227267 139.999985
[Rope3_Seg09]
15 90.185997 -0.000179 -0.000060 62.640446 -1.358125 -0.847647 90.185997
16 90.185997 -0.000179 -0.000060 60.367111 -1.359750 -0.846193 90.185997
[R_rear_hand01]
15 103.366196 -6.073594 -10.757982 -173.722168 23.903248 -64.209427 104.101845
16 103.366196 -6.073594 -10.757982 -176.613388 24.447432 -71.266014 104.101845
[R_rear_hand02]
15 100.509819 12.039542 -7.992327 -19.009037 34.423069 61.661366 101.543350
16 100.509819 12.039542 -7.992327 -14.613219 36.296532 69.251999 101.543350
[R_rear_hand03]
15 101.539970 5.215704 5.435467 77.282013 -63.257511 15.261523 101.819031
16 101.539970 5.215704 5.435467 73.547066 -69.515694 19.328247 101.819031
[Rope4_Seg01]
15 0.000000 0.000000 0.000000 39.313004 -45.533039 -84.997307 0.000000
16 0.000000 0.000000 0.000000 39.671169 -47.260300 -85.476921 0.000000
[Rope4_Seg02]
15 139.999985 0.000060 0.000119 0.052092 -1.689065 -2.749470 139.999985
16 139.999985 0.000060 0.000119 0.017402 -1.496936 -2.719183 139.999985
[Rope4_Seg03]
15 139.999924 0.000000 -0.000238 -0.073438 -2.882449 -4.687793 139.999924
16 139.999924 0.000000 -0.000238 -0.133424 -2.538195 -4.626940 139.999924
[Rope4_Seg04]
15 139.999985 0.000000 0.000119 -0.818852 -6.369771 -10.523578 139.999985
16 139.999985 0.000000 0.000119 -0.950164 -5.578814 -10.335143 139.999985
[Rope4_Seg05]
15 139.999802 -0.000060 -0.000119 -17.821581 -18.251490 -43.506294 139.999802
16 139.999802 -0.000060 -0.000119 -18.087599 -16.118370 -43.819305 139.999802
[Rope4_Seg06]
15 139.999924 0.000000 0.000060 -53.773312 -3.535995 -40.643555 139.999924
16 139.999924 0.000000 0.000060 -51.400345 -1.807782 -42.475861 139.999924
[Rope4_Seg07]
15 139.999802 0.000000 0.000000 -51.754772 21.134901 -43.862125 139.999802
16 139.999802 0.000000 0.000000 -50.274021 22.116394 -46.213745 139.999802
[Rope4_Seg08]
15 139.999924 0.000000 0.000119 -10.555952 29.046326 -8.754234 139.999924
16 139.999924 0.000000 0.000119 -10.134338 28.671976 -10.126209 139.999924
[Rope4_Seg09]
15 90.185791 0.000060 0.000060 -160.289246 2.230067 0.851053 90.185791
16 90.185791 0.000060 0.000060 -162.550186 2.229524 0.850731 90.185791
[L_rear_hand01]
15 101.696655 -8.392275 -7.654577 -14.087914 -36.478233 109.867661 102.329041
16 101.696655 -8.392275 -7.654577 -15.472530 -35.978535 112.209923 102.329041
[L_rear_hand02]
15 102.726799 -1.568258 5.773216 72.968384 70.215233 160.058731 102.900848
16 102.726799 -1.568258 5.773216 74.426735 68.349998 161.612610 102.900848
[L_rear_hand03]
15 104.552910 9.721220 -10.420293 -176.947357 -24.490156 -107.928688 105.519653
16 104.552910 9.721220 -10.420293 -176.063492 -24.371090 -110.065880 105.519653
